# xmcd CD database file
#
# Track frame offsets:
#	150
#	18408
#	33168
#	48823
#	67220
#	82260
#	98918
#	114473
#	131495
#	144675
#	163095
#	176655
#	197075
#	211408
#
# Disc length: 3034 seconds
#
# Revision: 0
# Processed by: cddbd v1.5.2PL0 Copyright (c) Steve Scherf et al.
# Submitted via: CDex 1.60beta1-cs1
#
DISCID=ca0bd80e
DTITLE=Heino - Willkommen bei
DYEAR=1990
DGENRE=Country
TTITLE0=Santa Maria Del Mar
TTITLE1=Leise fällt der Schnee auf die Taiga
TTITLE2=das erste Gebot
TTITLE3=Erinnerung
TTITLE4=Guten Abend, gute Nacht
TTITLE5=Die Reichen und die Armen
TTITLE6=Vater und Sohn
TTITLE7=Freiheit und Gerechtigkeit
TTITLE8=Tränen, die sind oft unsonst geweint
TTITLE9=letzte Rose
TTITLE10=König Fussball
TTITLE11=Abschiedsbrief auf rosarotem Briefpapier
TTITLE12=Einer geht noch
TTITLE13=Sagt man Auf Wiederseh'n
EXTD=YEAR: 1990
EXTT0=
EXTT1=
EXTT2=
EXTT3=
EXTT4=
EXTT5=
EXTT6=
EXTT7=
EXTT8=
EXTT9=
EXTT10=
EXTT11=
EXTT12=
EXTT13=
PLAYORDER=
